<mxfile host="65bd71144e">
    <diagram name="Page-1" id="03018318-947c-dd8e-b7a3-06fadd420f32">
        <mxGraphModel dx="4156" dy="1189" grid="1" gridSize="10" guides="1" tooltips="1" connect="1" arrows="1" fold="1" page="1" pageScale="1" pageWidth="1100" pageHeight="850" background="#ffffff" math="0" shadow="0">
            <root>
                <mxCell id="0"/>
                <mxCell id="1" parent="0"/>
                <mxCell id="KYz0ExE2ZF3JFbV7iySI-3" value="" style="strokeWidth=1;shadow=0;dashed=0;align=center;html=1;shape=mxgraph.mockup.containers.browserWindow;rSize=0;strokeColor=#666666;strokeColor2=#008cff;strokeColor3=#c4c4c4;mainText=,;recursiveResize=0;" parent="1" vertex="1">
                    <mxGeometry x="1120" y="100" width="1060" height="720" as="geometry"/>
                </mxCell>
                <mxCell id="KYz0ExE2ZF3JFbV7iySI-4" value="Page 1" style="strokeWidth=1;shadow=0;dashed=0;align=center;html=1;shape=mxgraph.mockup.containers.anchor;fontSize=17;fontColor=#666666;align=left;whiteSpace=wrap;" parent="KYz0ExE2ZF3JFbV7iySI-3" vertex="1">
                    <mxGeometry x="60" y="12" width="110" height="26" as="geometry"/>
                </mxCell>
                <mxCell id="KYz0ExE2ZF3JFbV7iySI-5" value="https://www.draw.io" style="strokeWidth=1;shadow=0;dashed=0;align=center;html=1;shape=mxgraph.mockup.containers.anchor;rSize=0;fontSize=17;fontColor=#666666;align=left;" parent="KYz0ExE2ZF3JFbV7iySI-3" vertex="1">
                    <mxGeometry x="130" y="60" width="250" height="26" as="geometry"/>
                </mxCell>
                <mxCell id="KYz0ExE2ZF3JFbV7iySI-6" value="" style="line;strokeWidth=1;html=1;rounded=0;shadow=0;labelBackgroundColor=none;fillColor=none;fontFamily=Verdana;fontSize=14;fontColor=#000000;align=center;comic=1;" parent="KYz0ExE2ZF3JFbV7iySI-3" vertex="1">
                    <mxGeometry y="160" width="1060" height="10" as="geometry"/>
                </mxCell>
                <mxCell id="KYz0ExE2ZF3JFbV7iySI-7" value="LOGO" style="whiteSpace=wrap;html=1;rounded=0;shadow=0;labelBackgroundColor=none;strokeWidth=1;fontFamily=Verdana;fontSize=28;align=center;comic=1;" parent="KYz0ExE2ZF3JFbV7iySI-3" vertex="1">
                    <mxGeometry x="10" y="117" width="110" height="40" as="geometry"/>
                </mxCell>
                <mxCell id="KYz0ExE2ZF3JFbV7iySI-8" value="" style="strokeWidth=1;shadow=0;dashed=0;align=center;html=1;shape=mxgraph.mockup.rrect;rSize=10;strokeColor=#666666;" parent="KYz0ExE2ZF3JFbV7iySI-3" vertex="1">
                    <mxGeometry x="940" y="117" width="110" height="193" as="geometry"/>
                </mxCell>
                <mxCell id="KYz0ExE2ZF3JFbV7iySI-9" value="Button 2" style="strokeColor=inherit;fillColor=inherit;gradientColor=inherit;strokeWidth=1;shadow=0;dashed=0;align=center;html=1;shape=mxgraph.mockup.rrect;rSize=0;fontSize=17;fontColor=#666666;fontStyle=1;resizeWidth=1;whiteSpace=wrap;" parent="KYz0ExE2ZF3JFbV7iySI-8" vertex="1">
                    <mxGeometry width="110" height="50" relative="1" as="geometry">
                        <mxPoint y="50" as="offset"/>
                    </mxGeometry>
                </mxCell>
                <mxCell id="KYz0ExE2ZF3JFbV7iySI-10" value="Button 3" style="strokeColor=inherit;fillColor=inherit;gradientColor=inherit;strokeWidth=1;shadow=0;dashed=0;align=center;html=1;shape=mxgraph.mockup.rrect;rSize=0;fontSize=17;fontColor=#666666;fontStyle=1;resizeWidth=1;whiteSpace=wrap;" parent="KYz0ExE2ZF3JFbV7iySI-8" vertex="1">
                    <mxGeometry width="110" height="50" relative="1" as="geometry">
                        <mxPoint y="100" as="offset"/>
                    </mxGeometry>
                </mxCell>
                <mxCell id="KYz0ExE2ZF3JFbV7iySI-11" value="Button 4" style="strokeColor=inherit;fillColor=inherit;gradientColor=inherit;strokeWidth=1;shadow=0;dashed=0;align=center;html=1;shape=mxgraph.mockup.bottomButton;rSize=10;fontSize=17;fontColor=#666666;fontStyle=1;resizeWidth=1;whiteSpace=wrap;" parent="KYz0ExE2ZF3JFbV7iySI-8" vertex="1">
                    <mxGeometry y="1" width="110" height="50" relative="1" as="geometry">
                        <mxPoint y="-50" as="offset"/>
                    </mxGeometry>
                </mxCell>
                <mxCell id="KYz0ExE2ZF3JFbV7iySI-12" value="Button 1" style="strokeWidth=1;shadow=0;dashed=0;align=center;html=1;shape=mxgraph.mockup.topButton;rSize=10;fontSize=17;fontColor=#ffffff;fontStyle=1;fillColor=#008cff;strokeColor=#008cff;resizeWidth=1;whiteSpace=wrap;" parent="KYz0ExE2ZF3JFbV7iySI-8" vertex="1">
                    <mxGeometry width="110" height="50" relative="1" as="geometry"/>
                </mxCell>
                <mxCell id="KYz0ExE2ZF3JFbV7iySI-13" value="" style="strokeWidth=1;shadow=0;dashed=0;align=center;html=1;shape=mxgraph.mockup.forms.rrect;rSize=0;strokeColor=#999999;fillColor=#ffffff;" parent="KYz0ExE2ZF3JFbV7iySI-3" vertex="1">
                    <mxGeometry x="170" y="200" width="720" height="445" as="geometry"/>
                </mxCell>
                <mxCell id="KYz0ExE2ZF3JFbV7iySI-14" value="Sign In" style="strokeWidth=1;shadow=0;dashed=0;align=center;html=1;shape=mxgraph.mockup.forms.anchor;fontSize=12;fontColor=#666666;align=left;resizeWidth=1;spacingLeft=0;" parent="KYz0ExE2ZF3JFbV7iySI-13" vertex="1">
                    <mxGeometry width="360" height="20" relative="1" as="geometry">
                        <mxPoint x="10" y="10" as="offset"/>
                    </mxGeometry>
                </mxCell>
                <mxCell id="KYz0ExE2ZF3JFbV7iySI-15" value="" style="shape=line;strokeColor=#ddeeff;strokeWidth=2;html=1;resizeWidth=1;" parent="KYz0ExE2ZF3JFbV7iySI-13" vertex="1">
                    <mxGeometry width="648" height="10" relative="1" as="geometry">
                        <mxPoint x="10" y="30" as="offset"/>
                    </mxGeometry>
                </mxCell>
                <mxCell id="KYz0ExE2ZF3JFbV7iySI-16" value="User Name:" style="strokeWidth=1;shadow=0;dashed=0;align=center;html=1;shape=mxgraph.mockup.forms.anchor;fontSize=12;fontColor=#666666;align=left;resizeWidth=1;spacingLeft=0;" parent="KYz0ExE2ZF3JFbV7iySI-13" vertex="1">
                    <mxGeometry width="360" height="20" relative="1" as="geometry">
                        <mxPoint x="10" y="40" as="offset"/>
                    </mxGeometry>
                </mxCell>
                <mxCell id="KYz0ExE2ZF3JFbV7iySI-17" value="johndoe" style="strokeWidth=1;shadow=0;dashed=0;align=center;html=1;shape=mxgraph.mockup.forms.rrect;rSize=0;strokeColor=#999999;fontColor=#666666;align=left;spacingLeft=5;resizeWidth=1;" parent="KYz0ExE2ZF3JFbV7iySI-13" vertex="1">
                    <mxGeometry width="540" height="25" relative="1" as="geometry">
                        <mxPoint x="10" y="60" as="offset"/>
                    </mxGeometry>
                </mxCell>
                <mxCell id="KYz0ExE2ZF3JFbV7iySI-18" value="Password:" style="strokeWidth=1;shadow=0;dashed=0;align=center;html=1;shape=mxgraph.mockup.forms.anchor;fontSize=12;fontColor=#666666;align=left;resizeWidth=1;spacingLeft=0;" parent="KYz0ExE2ZF3JFbV7iySI-13" vertex="1">
                    <mxGeometry width="360" height="20" relative="1" as="geometry">
                        <mxPoint x="10" y="95" as="offset"/>
                    </mxGeometry>
                </mxCell>
                <mxCell id="KYz0ExE2ZF3JFbV7iySI-19" value="********" style="strokeWidth=1;shadow=0;dashed=0;align=center;html=1;shape=mxgraph.mockup.forms.rrect;rSize=0;strokeColor=#999999;fontColor=#666666;align=left;spacingLeft=5;resizeWidth=1;" parent="KYz0ExE2ZF3JFbV7iySI-13" vertex="1">
                    <mxGeometry width="540" height="25" relative="1" as="geometry">
                        <mxPoint x="10" y="115" as="offset"/>
                    </mxGeometry>
                </mxCell>
                <mxCell id="KYz0ExE2ZF3JFbV7iySI-20" value="SIGN IN" style="strokeWidth=1;shadow=0;dashed=0;align=center;html=1;shape=mxgraph.mockup.forms.rrect;rSize=5;strokeColor=none;fontColor=#ffffff;fillColor=#66bbff;fontSize=16;fontStyle=1;" parent="KYz0ExE2ZF3JFbV7iySI-13" vertex="1">
                    <mxGeometry y="1" width="80" height="30" relative="1" as="geometry">
                        <mxPoint x="250" y="-50" as="offset"/>
                    </mxGeometry>
                </mxCell>
                <mxCell id="KYz0ExE2ZF3JFbV7iySI-21" value="" style="shape=line;strokeColor=#ddeeff;strokeWidth=2;html=1;resizeWidth=1;" parent="KYz0ExE2ZF3JFbV7iySI-13" vertex="1">
                    <mxGeometry y="1" width="648" height="10" relative="1" as="geometry">
                        <mxPoint x="10" y="-108" as="offset"/>
                    </mxGeometry>
                </mxCell>
                <mxCell id="KYz0ExE2ZF3JFbV7iySI-22" value="&lt;font style=&quot;font-size: 21px;&quot;&gt;Already have an account ?&lt;/font&gt;" style="strokeWidth=1;shadow=0;dashed=0;align=center;html=1;shape=mxgraph.mockup.forms.anchor;fontSize=12;fontColor=#666666;align=left;spacingLeft=0;resizeWidth=1;" parent="KYz0ExE2ZF3JFbV7iySI-13" vertex="1">
                    <mxGeometry y="1" width="260" height="20" relative="1" as="geometry">
                        <mxPoint x="230" y="-84" as="offset"/>
                    </mxGeometry>
                </mxCell>
                <mxCell id="KYz0ExE2ZF3JFbV7iySI-23" value="SIGN UP" style="strokeWidth=1;shadow=0;dashed=0;align=center;html=1;shape=mxgraph.mockup.forms.rrect;rSize=5;strokeColor=none;fontColor=#ffffff;fillColor=#66bbff;fontSize=16;fontStyle=1;" parent="KYz0ExE2ZF3JFbV7iySI-13" vertex="1">
                    <mxGeometry y="1" width="80" height="30" relative="1" as="geometry">
                        <mxPoint x="10" y="-150" as="offset"/>
                    </mxGeometry>
                </mxCell>
                <mxCell id="KYz0ExE2ZF3JFbV7iySI-24" value="Google SIGN IN" style="strokeWidth=1;shadow=0;dashed=0;align=center;html=1;shape=mxgraph.mockup.forms.rrect;rSize=5;strokeColor=none;fontColor=#ffffff;fillColor=#66bbff;fontSize=16;fontStyle=1;" parent="KYz0ExE2ZF3JFbV7iySI-13" vertex="1">
                    <mxGeometry x="340" y="395" width="130" height="30" as="geometry"/>
                </mxCell>
                <mxCell id="KYz0ExE2ZF3JFbV7iySI-59" value="" style="rounded=0;whiteSpace=wrap;html=1;" parent="1" vertex="1">
                    <mxGeometry x="1168" y="428" width="980" height="270" as="geometry"/>
                </mxCell>
                <mxCell id="PVh8QPUen67NUNTlTuPj-7" value="" style="strokeWidth=1;shadow=0;dashed=0;align=center;html=1;shape=mxgraph.mockup.containers.browserWindow;rSize=0;strokeColor=#666666;strokeColor2=#008cff;strokeColor3=#c4c4c4;mainText=,;recursiveResize=0;" parent="1" vertex="1">
                    <mxGeometry x="-1080" y="100" width="1060" height="720" as="geometry"/>
                </mxCell>
                <mxCell id="KYz0ExE2ZF3JFbV7iySI-37" value="" style="shape=mxgraph.mockup.containers.marginRect;rectMarginTop=10;strokeColor=#666666;strokeWidth=1;dashed=0;rounded=1;arcSize=5;recursiveResize=0;html=1;whiteSpace=wrap;" parent="PVh8QPUen67NUNTlTuPj-7" vertex="1">
                    <mxGeometry x="240" y="180" width="800" height="460" as="geometry"/>
                </mxCell>
                <mxCell id="KYz0ExE2ZF3JFbV7iySI-38" value="Groupe Name" style="shape=rect;strokeColor=none;fillColor=#008cff;strokeWidth=1;dashed=0;rounded=1;arcSize=20;fontColor=#ffffff;fontSize=17;spacing=2;spacingTop=-2;align=left;autosize=1;spacingLeft=4;resizeWidth=0;resizeHeight=0;perimeter=none;html=1;whiteSpace=wrap;" parent="KYz0ExE2ZF3JFbV7iySI-37" vertex="1">
                    <mxGeometry x="5" width="125" height="30" as="geometry"/>
                </mxCell>
                <mxCell id="KYz0ExE2ZF3JFbV7iySI-31" value="" style="verticalLabelPosition=bottom;shadow=0;dashed=0;align=center;html=1;verticalAlign=top;strokeWidth=1;shape=mxgraph.mockup.navigation.scrollBar;strokeColor=#999999;barPos=20;fillColor2=#99ddff;strokeColor2=none;direction=north;" parent="PVh8QPUen67NUNTlTuPj-7" vertex="1">
                    <mxGeometry x="1020" y="190" width="20" height="450" as="geometry"/>
                </mxCell>
                <mxCell id="PVh8QPUen67NUNTlTuPj-8" value="Page 1" style="strokeWidth=1;shadow=0;dashed=0;align=center;html=1;shape=mxgraph.mockup.containers.anchor;fontSize=17;fontColor=#666666;align=left;whiteSpace=wrap;" parent="PVh8QPUen67NUNTlTuPj-7" vertex="1">
                    <mxGeometry x="60" y="12" width="110" height="26" as="geometry"/>
                </mxCell>
                <mxCell id="PVh8QPUen67NUNTlTuPj-9" value="https://www.draw.io" style="strokeWidth=1;shadow=0;dashed=0;align=center;html=1;shape=mxgraph.mockup.containers.anchor;rSize=0;fontSize=17;fontColor=#666666;align=left;" parent="PVh8QPUen67NUNTlTuPj-7" vertex="1">
                    <mxGeometry x="130" y="60" width="250" height="26" as="geometry"/>
                </mxCell>
                <mxCell id="677b7b8949515195-9" value="" style="line;strokeWidth=1;html=1;rounded=0;shadow=0;labelBackgroundColor=none;fillColor=none;fontFamily=Verdana;fontSize=14;fontColor=#000000;align=center;comic=1;" parent="PVh8QPUen67NUNTlTuPj-7" vertex="1">
                    <mxGeometry y="160" width="1060" height="10" as="geometry"/>
                </mxCell>
                <mxCell id="677b7b8949515195-2" value="" style="whiteSpace=wrap;html=1;rounded=0;shadow=0;labelBackgroundColor=none;strokeWidth=1;fontFamily=Verdana;fontSize=28;align=center;comic=1;" parent="PVh8QPUen67NUNTlTuPj-7" vertex="1">
                    <mxGeometry x="10" y="117" width="110" height="40" as="geometry"/>
                </mxCell>
                <mxCell id="PVh8QPUen67NUNTlTuPj-2" value="" style="strokeWidth=1;shadow=0;dashed=0;align=center;html=1;shape=mxgraph.mockup.rrect;rSize=10;strokeColor=#666666;" parent="PVh8QPUen67NUNTlTuPj-7" vertex="1">
                    <mxGeometry x="940" y="117" width="110" height="193" as="geometry"/>
                </mxCell>
                <mxCell id="PVh8QPUen67NUNTlTuPj-3" value="Button 2" style="strokeColor=inherit;fillColor=inherit;gradientColor=inherit;strokeWidth=1;shadow=0;dashed=0;align=center;html=1;shape=mxgraph.mockup.rrect;rSize=0;fontSize=17;fontColor=#666666;fontStyle=1;resizeWidth=1;whiteSpace=wrap;" parent="PVh8QPUen67NUNTlTuPj-2" vertex="1">
                    <mxGeometry width="110" height="50" relative="1" as="geometry">
                        <mxPoint y="50" as="offset"/>
                    </mxGeometry>
                </mxCell>
                <mxCell id="PVh8QPUen67NUNTlTuPj-4" value="Button 3" style="strokeColor=inherit;fillColor=inherit;gradientColor=inherit;strokeWidth=1;shadow=0;dashed=0;align=center;html=1;shape=mxgraph.mockup.rrect;rSize=0;fontSize=17;fontColor=#666666;fontStyle=1;resizeWidth=1;whiteSpace=wrap;" parent="PVh8QPUen67NUNTlTuPj-2" vertex="1">
                    <mxGeometry width="110" height="50" relative="1" as="geometry">
                        <mxPoint y="100" as="offset"/>
                    </mxGeometry>
                </mxCell>
                <mxCell id="PVh8QPUen67NUNTlTuPj-5" value="Button 4" style="strokeColor=inherit;fillColor=inherit;gradientColor=inherit;strokeWidth=1;shadow=0;dashed=0;align=center;html=1;shape=mxgraph.mockup.bottomButton;rSize=10;fontSize=17;fontColor=#666666;fontStyle=1;resizeWidth=1;whiteSpace=wrap;" parent="PVh8QPUen67NUNTlTuPj-2" vertex="1">
                    <mxGeometry y="1" width="110" height="50" relative="1" as="geometry">
                        <mxPoint y="-50" as="offset"/>
                    </mxGeometry>
                </mxCell>
                <mxCell id="PVh8QPUen67NUNTlTuPj-6" value="Button 1" style="strokeWidth=1;shadow=0;dashed=0;align=center;html=1;shape=mxgraph.mockup.topButton;rSize=10;fontSize=17;fontColor=#ffffff;fontStyle=1;fillColor=#008cff;strokeColor=#008cff;resizeWidth=1;whiteSpace=wrap;" parent="PVh8QPUen67NUNTlTuPj-2" vertex="1">
                    <mxGeometry width="110" height="50" relative="1" as="geometry"/>
                </mxCell>
                <mxCell id="KYz0ExE2ZF3JFbV7iySI-26" value="" style="whiteSpace=wrap;html=1;rounded=0;shadow=0;labelBackgroundColor=none;strokeWidth=1;fillColor=none;fontFamily=Verdana;fontSize=12;align=left;comic=1;" parent="PVh8QPUen67NUNTlTuPj-7" vertex="1">
                    <mxGeometry x="240" y="660" width="710" height="40" as="geometry"/>
                </mxCell>
                <mxCell id="KYz0ExE2ZF3JFbV7iySI-29" value="" style="shape=ellipse;dashed=0;strokeColor=none;shadow=1;fontSize=13;align=center;verticalAlign=top;labelPosition=center;verticalLabelPosition=bottom;html=1;aspect=fixed;" parent="PVh8QPUen67NUNTlTuPj-7" vertex="1">
                    <mxGeometry x="1000" y="660" width="40" height="40" as="geometry"/>
                </mxCell>
                <mxCell id="KYz0ExE2ZF3JFbV7iySI-30" value="" style="dashed=0;html=1;shape=mxgraph.gmdl.plus;strokeColor=#737373;strokeWidth=2;shadow=0;sketch=0;html=1;labelPosition=center;verticalLabelPosition=bottom;align=center;verticalAlign=top;" parent="KYz0ExE2ZF3JFbV7iySI-29" vertex="1">
                    <mxGeometry x="12" y="12" width="16" height="16" as="geometry"/>
                </mxCell>
                <mxCell id="KYz0ExE2ZF3JFbV7iySI-39" value="Input text" style="text;fontSize=16;verticalAlign=middle;strokeColor=none;fillColor=none;whiteSpace=wrap;html=1;" parent="PVh8QPUen67NUNTlTuPj-7" vertex="1">
                    <mxGeometry x="250" y="665" width="700" height="30" as="geometry"/>
                </mxCell>
                <mxCell id="KYz0ExE2ZF3JFbV7iySI-40" value="" style="dashed=0;shape=line;strokeWidth=2;noLabel=1;strokeColor=#0C8CF2;opacity=50;" parent="PVh8QPUen67NUNTlTuPj-7" vertex="1">
                    <mxGeometry x="240" y="688" width="710" height="10" as="geometry"/>
                </mxCell>
                <mxCell id="KYz0ExE2ZF3JFbV7iySI-41" value="" style="shape=ellipse;strokeColor=none;fillColor=#ffffff;shadow=1;gradientColor=none;sketch=0;hachureGap=4;pointerEvents=0;fontFamily=Architects Daughter;fontSource=https%3A%2F%2Ffonts.googleapis.com%2Fcss%3Ffamily%3DArchitects%2BDaughter;fontSize=20;html=1;labelPosition=center;verticalLabelPosition=bottom;align=center;verticalAlign=top;" parent="PVh8QPUen67NUNTlTuPj-7" vertex="1">
                    <mxGeometry x="960" y="660" width="40" height="40" as="geometry"/>
                </mxCell>
                <mxCell id="KYz0ExE2ZF3JFbV7iySI-42" value="" style="dashed=0;html=1;shape=mxgraph.gmdl.doc;strokeColor=#ffffff;fillColor=#737373;strokeWidth=2;sketch=0;hachureGap=4;pointerEvents=0;fontFamily=Architects Daughter;fontSource=https%3A%2F%2Ffonts.googleapis.com%2Fcss%3Ffamily%3DArchitects%2BDaughter;fontSize=20;" parent="KYz0ExE2ZF3JFbV7iySI-41" vertex="1">
                    <mxGeometry x="0.5" y="0.5" width="14" height="16" relative="1" as="geometry">
                        <mxPoint x="-7" y="-8" as="offset"/>
                    </mxGeometry>
                </mxCell>
                <mxCell id="677b7b8949515195-8" value="" style="whiteSpace=wrap;html=1;rounded=0;shadow=0;labelBackgroundColor=none;strokeWidth=1;fillColor=none;fontFamily=Verdana;fontSize=12;align=center;comic=1;" parent="1" vertex="1">
                    <mxGeometry x="-1060" y="290" width="200" height="510" as="geometry"/>
                </mxCell>
                <mxCell id="677b7b8949515195-27" value="Section 1" style="text;html=1;points=[];align=left;verticalAlign=top;spacingTop=-4;fontSize=14;fontFamily=Verdana" parent="1" vertex="1">
                    <mxGeometry x="-1050" y="300" width="170" height="20" as="geometry"/>
                </mxCell>
                <mxCell id="677b7b8949515195-28" value="Section 2" style="text;html=1;points=[];align=left;verticalAlign=top;spacingTop=-4;fontSize=14;fontFamily=Verdana" parent="1" vertex="1">
                    <mxGeometry x="-1050" y="336" width="170" height="20" as="geometry"/>
                </mxCell>
                <mxCell id="677b7b8949515195-29" value="Section 3" style="text;html=1;points=[];align=left;verticalAlign=top;spacingTop=-4;fontSize=14;fontFamily=Verdana" parent="1" vertex="1">
                    <mxGeometry x="-1050" y="371" width="170" height="20" as="geometry"/>
                </mxCell>
                <mxCell id="677b7b8949515195-30" value="Section 4" style="text;html=1;points=[];align=left;verticalAlign=top;spacingTop=-4;fontSize=14;fontFamily=Verdana" parent="1" vertex="1">
                    <mxGeometry x="-1050" y="407" width="170" height="20" as="geometry"/>
                </mxCell>
                <mxCell id="677b7b8949515195-39" value="Section 5" style="text;html=1;points=[];align=left;verticalAlign=top;spacingTop=-4;fontSize=14;fontFamily=Verdana" parent="1" vertex="1">
                    <mxGeometry x="-1050" y="443" width="170" height="20" as="geometry"/>
                </mxCell>
                <mxCell id="677b7b8949515195-40" value="Section 6" style="text;html=1;points=[];align=left;verticalAlign=top;spacingTop=-4;fontSize=14;fontFamily=Verdana" parent="1" vertex="1">
                    <mxGeometry x="-1050" y="479" width="170" height="20" as="geometry"/>
                </mxCell>
                <mxCell id="PVh8QPUen67NUNTlTuPj-13" value="&lt;font style=&quot;font-size: 48px;&quot;&gt;HOME&lt;/font&gt;" style="text;html=1;align=center;verticalAlign=middle;resizable=0;points=[];autosize=1;strokeColor=none;fillColor=none;" parent="1" vertex="1">
                    <mxGeometry x="-635" y="8" width="170" height="70" as="geometry"/>
                </mxCell>
                <mxCell id="PVh8QPUen67NUNTlTuPj-14" value="" style="strokeWidth=1;shadow=0;dashed=0;align=center;html=1;shape=mxgraph.mockup.containers.browserWindow;rSize=0;strokeColor=#666666;strokeColor2=#008cff;strokeColor3=#c4c4c4;mainText=,;recursiveResize=0;" parent="1" vertex="1">
                    <mxGeometry x="20" y="100" width="1060" height="720" as="geometry"/>
                </mxCell>
                <mxCell id="PVh8QPUen67NUNTlTuPj-16" value="Page 1" style="strokeWidth=1;shadow=0;dashed=0;align=center;html=1;shape=mxgraph.mockup.containers.anchor;fontSize=17;fontColor=#666666;align=left;whiteSpace=wrap;" parent="PVh8QPUen67NUNTlTuPj-14" vertex="1">
                    <mxGeometry x="60" y="12" width="110" height="26" as="geometry"/>
                </mxCell>
                <mxCell id="PVh8QPUen67NUNTlTuPj-17" value="https://www.draw.io" style="strokeWidth=1;shadow=0;dashed=0;align=center;html=1;shape=mxgraph.mockup.containers.anchor;rSize=0;fontSize=17;fontColor=#666666;align=left;" parent="PVh8QPUen67NUNTlTuPj-14" vertex="1">
                    <mxGeometry x="130" y="60" width="250" height="26" as="geometry"/>
                </mxCell>
                <mxCell id="PVh8QPUen67NUNTlTuPj-18" value="" style="line;strokeWidth=1;html=1;rounded=0;shadow=0;labelBackgroundColor=none;fillColor=none;fontFamily=Verdana;fontSize=14;fontColor=#000000;align=center;comic=1;" parent="PVh8QPUen67NUNTlTuPj-14" vertex="1">
                    <mxGeometry y="160" width="1060" height="10" as="geometry"/>
                </mxCell>
                <mxCell id="PVh8QPUen67NUNTlTuPj-19" value="LOGO" style="whiteSpace=wrap;html=1;rounded=0;shadow=0;labelBackgroundColor=none;strokeWidth=1;fontFamily=Verdana;fontSize=28;align=center;comic=1;" parent="PVh8QPUen67NUNTlTuPj-14" vertex="1">
                    <mxGeometry x="10" y="117" width="110" height="40" as="geometry"/>
                </mxCell>
                <mxCell id="PVh8QPUen67NUNTlTuPj-20" value="" style="strokeWidth=1;shadow=0;dashed=0;align=center;html=1;shape=mxgraph.mockup.rrect;rSize=10;strokeColor=#666666;" parent="PVh8QPUen67NUNTlTuPj-14" vertex="1">
                    <mxGeometry x="940" y="117" width="110" height="193" as="geometry"/>
                </mxCell>
                <mxCell id="PVh8QPUen67NUNTlTuPj-21" value="Button 2" style="strokeColor=inherit;fillColor=inherit;gradientColor=inherit;strokeWidth=1;shadow=0;dashed=0;align=center;html=1;shape=mxgraph.mockup.rrect;rSize=0;fontSize=17;fontColor=#666666;fontStyle=1;resizeWidth=1;whiteSpace=wrap;" parent="PVh8QPUen67NUNTlTuPj-20" vertex="1">
                    <mxGeometry width="110" height="50" relative="1" as="geometry">
                        <mxPoint y="50" as="offset"/>
                    </mxGeometry>
                </mxCell>
                <mxCell id="PVh8QPUen67NUNTlTuPj-22" value="Button 3" style="strokeColor=inherit;fillColor=inherit;gradientColor=inherit;strokeWidth=1;shadow=0;dashed=0;align=center;html=1;shape=mxgraph.mockup.rrect;rSize=0;fontSize=17;fontColor=#666666;fontStyle=1;resizeWidth=1;whiteSpace=wrap;" parent="PVh8QPUen67NUNTlTuPj-20" vertex="1">
                    <mxGeometry width="110" height="50" relative="1" as="geometry">
                        <mxPoint y="100" as="offset"/>
                    </mxGeometry>
                </mxCell>
                <mxCell id="PVh8QPUen67NUNTlTuPj-23" value="Button 4" style="strokeColor=inherit;fillColor=inherit;gradientColor=inherit;strokeWidth=1;shadow=0;dashed=0;align=center;html=1;shape=mxgraph.mockup.bottomButton;rSize=10;fontSize=17;fontColor=#666666;fontStyle=1;resizeWidth=1;whiteSpace=wrap;" parent="PVh8QPUen67NUNTlTuPj-20" vertex="1">
                    <mxGeometry y="1" width="110" height="50" relative="1" as="geometry">
                        <mxPoint y="-50" as="offset"/>
                    </mxGeometry>
                </mxCell>
                <mxCell id="PVh8QPUen67NUNTlTuPj-24" value="Button 1" style="strokeWidth=1;shadow=0;dashed=0;align=center;html=1;shape=mxgraph.mockup.topButton;rSize=10;fontSize=17;fontColor=#ffffff;fontStyle=1;fillColor=#008cff;strokeColor=#008cff;resizeWidth=1;whiteSpace=wrap;" parent="PVh8QPUen67NUNTlTuPj-20" vertex="1">
                    <mxGeometry width="110" height="50" relative="1" as="geometry"/>
                </mxCell>
                <mxCell id="PVh8QPUen67NUNTlTuPj-41" value="" style="strokeWidth=1;shadow=0;dashed=0;align=center;html=1;shape=mxgraph.mockup.forms.rrect;rSize=0;strokeColor=#999999;fillColor=#ffffff;" parent="PVh8QPUen67NUNTlTuPj-14" vertex="1">
                    <mxGeometry x="170" y="200" width="720" height="445" as="geometry"/>
                </mxCell>
                <mxCell id="PVh8QPUen67NUNTlTuPj-42" value="Sign In" style="strokeWidth=1;shadow=0;dashed=0;align=center;html=1;shape=mxgraph.mockup.forms.anchor;fontSize=12;fontColor=#666666;align=left;resizeWidth=1;spacingLeft=0;" parent="PVh8QPUen67NUNTlTuPj-41" vertex="1">
                    <mxGeometry width="360" height="20" relative="1" as="geometry">
                        <mxPoint x="10" y="10" as="offset"/>
                    </mxGeometry>
                </mxCell>
                <mxCell id="PVh8QPUen67NUNTlTuPj-43" value="" style="shape=line;strokeColor=#ddeeff;strokeWidth=2;html=1;resizeWidth=1;" parent="PVh8QPUen67NUNTlTuPj-41" vertex="1">
                    <mxGeometry width="648" height="10" relative="1" as="geometry">
                        <mxPoint x="10" y="30" as="offset"/>
                    </mxGeometry>
                </mxCell>
                <mxCell id="PVh8QPUen67NUNTlTuPj-44" value="User Name:" style="strokeWidth=1;shadow=0;dashed=0;align=center;html=1;shape=mxgraph.mockup.forms.anchor;fontSize=12;fontColor=#666666;align=left;resizeWidth=1;spacingLeft=0;" parent="PVh8QPUen67NUNTlTuPj-41" vertex="1">
                    <mxGeometry width="360" height="20" relative="1" as="geometry">
                        <mxPoint x="10" y="40" as="offset"/>
                    </mxGeometry>
                </mxCell>
                <mxCell id="PVh8QPUen67NUNTlTuPj-45" value="johndoe" style="strokeWidth=1;shadow=0;dashed=0;align=center;html=1;shape=mxgraph.mockup.forms.rrect;rSize=0;strokeColor=#999999;fontColor=#666666;align=left;spacingLeft=5;resizeWidth=1;" parent="PVh8QPUen67NUNTlTuPj-41" vertex="1">
                    <mxGeometry width="540" height="25" relative="1" as="geometry">
                        <mxPoint x="10" y="60" as="offset"/>
                    </mxGeometry>
                </mxCell>
                <mxCell id="PVh8QPUen67NUNTlTuPj-46" value="Password:" style="strokeWidth=1;shadow=0;dashed=0;align=center;html=1;shape=mxgraph.mockup.forms.anchor;fontSize=12;fontColor=#666666;align=left;resizeWidth=1;spacingLeft=0;" parent="PVh8QPUen67NUNTlTuPj-41" vertex="1">
                    <mxGeometry width="360" height="20" relative="1" as="geometry">
                        <mxPoint x="10" y="95" as="offset"/>
                    </mxGeometry>
                </mxCell>
                <mxCell id="PVh8QPUen67NUNTlTuPj-47" value="********" style="strokeWidth=1;shadow=0;dashed=0;align=center;html=1;shape=mxgraph.mockup.forms.rrect;rSize=0;strokeColor=#999999;fontColor=#666666;align=left;spacingLeft=5;resizeWidth=1;" parent="PVh8QPUen67NUNTlTuPj-41" vertex="1">
                    <mxGeometry width="540" height="25" relative="1" as="geometry">
                        <mxPoint x="10" y="115" as="offset"/>
                    </mxGeometry>
                </mxCell>
                <mxCell id="PVh8QPUen67NUNTlTuPj-48" value="SIGN IN" style="strokeWidth=1;shadow=0;dashed=0;align=center;html=1;shape=mxgraph.mockup.forms.rrect;rSize=5;strokeColor=none;fontColor=#ffffff;fillColor=#66bbff;fontSize=16;fontStyle=1;" parent="PVh8QPUen67NUNTlTuPj-41" vertex="1">
                    <mxGeometry y="1" width="80" height="30" relative="1" as="geometry">
                        <mxPoint x="250" y="-50" as="offset"/>
                    </mxGeometry>
                </mxCell>
                <mxCell id="PVh8QPUen67NUNTlTuPj-50" value="" style="shape=line;strokeColor=#ddeeff;strokeWidth=2;html=1;resizeWidth=1;" parent="PVh8QPUen67NUNTlTuPj-41" vertex="1">
                    <mxGeometry y="1" width="648" height="10" relative="1" as="geometry">
                        <mxPoint x="10" y="-108" as="offset"/>
                    </mxGeometry>
                </mxCell>
                <mxCell id="PVh8QPUen67NUNTlTuPj-51" value="&lt;font style=&quot;font-size: 21px;&quot;&gt;Already have an account ?&lt;/font&gt;" style="strokeWidth=1;shadow=0;dashed=0;align=center;html=1;shape=mxgraph.mockup.forms.anchor;fontSize=12;fontColor=#666666;align=left;spacingLeft=0;resizeWidth=1;" parent="PVh8QPUen67NUNTlTuPj-41" vertex="1">
                    <mxGeometry y="1" width="260" height="20" relative="1" as="geometry">
                        <mxPoint x="230" y="-84" as="offset"/>
                    </mxGeometry>
                </mxCell>
                <mxCell id="PVh8QPUen67NUNTlTuPj-52" value="SIGN UP" style="strokeWidth=1;shadow=0;dashed=0;align=center;html=1;shape=mxgraph.mockup.forms.rrect;rSize=5;strokeColor=none;fontColor=#ffffff;fillColor=#66bbff;fontSize=16;fontStyle=1;" parent="PVh8QPUen67NUNTlTuPj-41" vertex="1">
                    <mxGeometry y="1" width="80" height="30" relative="1" as="geometry">
                        <mxPoint x="10" y="-150" as="offset"/>
                    </mxGeometry>
                </mxCell>
                <mxCell id="KYz0ExE2ZF3JFbV7iySI-2" value="Google SIGN IN" style="strokeWidth=1;shadow=0;dashed=0;align=center;html=1;shape=mxgraph.mockup.forms.rrect;rSize=5;strokeColor=none;fontColor=#ffffff;fillColor=#66bbff;fontSize=16;fontStyle=1;" parent="PVh8QPUen67NUNTlTuPj-41" vertex="1">
                    <mxGeometry x="340" y="395" width="130" height="30" as="geometry"/>
                </mxCell>
                <mxCell id="PVh8QPUen67NUNTlTuPj-40" value="&lt;font style=&quot;font-size: 48px;&quot;&gt;Register&lt;/font&gt;" style="text;html=1;align=center;verticalAlign=middle;resizable=0;points=[];autosize=1;strokeColor=none;fillColor=none;" parent="1" vertex="1">
                    <mxGeometry x="450" y="8" width="200" height="70" as="geometry"/>
                </mxCell>
                <mxCell id="KYz0ExE2ZF3JFbV7iySI-25" value="&lt;font style=&quot;font-size: 48px;&quot;&gt;Login&lt;/font&gt;" style="text;html=1;align=center;verticalAlign=middle;resizable=0;points=[];autosize=1;strokeColor=none;fillColor=none;" parent="1" vertex="1">
                    <mxGeometry x="1580" y="8" width="140" height="70" as="geometry"/>
                </mxCell>
                <mxCell id="KYz0ExE2ZF3JFbV7iySI-32" value="" style="verticalLabelPosition=bottom;shadow=0;dashed=0;align=center;html=1;verticalAlign=top;strokeWidth=1;shape=mxgraph.mockup.menus_and_buttons.font_style_selector_1;" parent="1" vertex="1">
                    <mxGeometry x="20" y="850" width="136" height="31" as="geometry"/>
                </mxCell>
                <mxCell id="KYz0ExE2ZF3JFbV7iySI-36" value="" style="strokeWidth=1;shadow=0;dashed=0;align=center;html=1;shape=mxgraph.mockup.text.callout;linkText=;textSize=17;textColor=#666666;callDir=SE;callStyle=line;fontSize=17;fontColor=#666666;align=right;verticalAlign=bottom;strokeColor=#666666;" parent="1" vertex="1">
                    <mxGeometry x="-110" y="784" width="200" height="100" as="geometry"/>
                </mxCell>
                <mxCell id="KYz0ExE2ZF3JFbV7iySI-53" value="Sign In" style="strokeWidth=1;shadow=0;dashed=0;align=center;html=1;shape=mxgraph.mockup.forms.anchor;fontSize=12;fontColor=#666666;align=left;resizeWidth=1;spacingLeft=0;" parent="1" vertex="1">
                    <mxGeometry x="1188" y="458" width="360" height="20" as="geometry"/>
                </mxCell>
                <mxCell id="KYz0ExE2ZF3JFbV7iySI-54" value="" style="shape=line;strokeColor=#ddeeff;strokeWidth=2;html=1;resizeWidth=1;" parent="1" vertex="1">
                    <mxGeometry x="1188" y="478" width="648" height="10" as="geometry"/>
                </mxCell>
                <mxCell id="KYz0ExE2ZF3JFbV7iySI-55" value="User Name:" style="strokeWidth=1;shadow=0;dashed=0;align=center;html=1;shape=mxgraph.mockup.forms.anchor;fontSize=12;fontColor=#666666;align=left;resizeWidth=1;spacingLeft=0;" parent="1" vertex="1">
                    <mxGeometry x="1188" y="488" width="360" height="20" as="geometry"/>
                </mxCell>
                <mxCell id="KYz0ExE2ZF3JFbV7iySI-56" value="johndoe" style="strokeWidth=1;shadow=0;dashed=0;align=center;html=1;shape=mxgraph.mockup.forms.rrect;rSize=0;strokeColor=#999999;fontColor=#666666;align=left;spacingLeft=5;resizeWidth=1;" parent="1" vertex="1">
                    <mxGeometry x="1188" y="508" width="540" height="25" as="geometry"/>
                </mxCell>
                <mxCell id="KYz0ExE2ZF3JFbV7iySI-57" value="Password:" style="strokeWidth=1;shadow=0;dashed=0;align=center;html=1;shape=mxgraph.mockup.forms.anchor;fontSize=12;fontColor=#666666;align=left;resizeWidth=1;spacingLeft=0;" parent="1" vertex="1">
                    <mxGeometry x="1188" y="543" width="360" height="20" as="geometry"/>
                </mxCell>
                <mxCell id="KYz0ExE2ZF3JFbV7iySI-58" value="********" style="strokeWidth=1;shadow=0;dashed=0;align=center;html=1;shape=mxgraph.mockup.forms.rrect;rSize=0;strokeColor=#999999;fontColor=#666666;align=left;spacingLeft=5;resizeWidth=1;" parent="1" vertex="1">
                    <mxGeometry x="1188" y="563" width="540" height="25" as="geometry"/>
                </mxCell>
                <mxCell id="KYz0ExE2ZF3JFbV7iySI-60" value="SIGN IN" style="strokeWidth=1;shadow=0;dashed=0;align=center;html=1;shape=mxgraph.mockup.forms.rrect;rSize=5;strokeColor=none;fontColor=#ffffff;fillColor=#66bbff;fontSize=16;fontStyle=1;" parent="1" vertex="1">
                    <mxGeometry x="1188" y="658" width="80" height="30" as="geometry"/>
                </mxCell>
                <mxCell id="KYz0ExE2ZF3JFbV7iySI-61" value="" style="strokeWidth=1;shadow=0;dashed=0;align=center;html=1;shape=mxgraph.mockup.containers.browserWindow;rSize=0;strokeColor=#666666;strokeColor2=#008cff;strokeColor3=#c4c4c4;mainText=,;recursiveResize=0;" parent="1" vertex="1">
                    <mxGeometry x="2220" y="103" width="1060" height="720" as="geometry"/>
                </mxCell>
                <mxCell id="KYz0ExE2ZF3JFbV7iySI-62" value="Page 1" style="strokeWidth=1;shadow=0;dashed=0;align=center;html=1;shape=mxgraph.mockup.containers.anchor;fontSize=17;fontColor=#666666;align=left;whiteSpace=wrap;" parent="KYz0ExE2ZF3JFbV7iySI-61" vertex="1">
                    <mxGeometry x="60" y="12" width="110" height="26" as="geometry"/>
                </mxCell>
                <mxCell id="KYz0ExE2ZF3JFbV7iySI-63" value="https://www.draw.io" style="strokeWidth=1;shadow=0;dashed=0;align=center;html=1;shape=mxgraph.mockup.containers.anchor;rSize=0;fontSize=17;fontColor=#666666;align=left;" parent="KYz0ExE2ZF3JFbV7iySI-61" vertex="1">
                    <mxGeometry x="130" y="60" width="250" height="26" as="geometry"/>
                </mxCell>
                <mxCell id="KYz0ExE2ZF3JFbV7iySI-64" value="" style="line;strokeWidth=1;html=1;rounded=0;shadow=0;labelBackgroundColor=none;fillColor=none;fontFamily=Verdana;fontSize=14;fontColor=#000000;align=center;comic=1;" parent="KYz0ExE2ZF3JFbV7iySI-61" vertex="1">
                    <mxGeometry y="160" width="1060" height="10" as="geometry"/>
                </mxCell>
                <mxCell id="KYz0ExE2ZF3JFbV7iySI-65" value="LOGO" style="whiteSpace=wrap;html=1;rounded=0;shadow=0;labelBackgroundColor=none;strokeWidth=1;fontFamily=Verdana;fontSize=28;align=center;comic=1;" parent="KYz0ExE2ZF3JFbV7iySI-61" vertex="1">
                    <mxGeometry x="10" y="117" width="110" height="40" as="geometry"/>
                </mxCell>
                <mxCell id="KYz0ExE2ZF3JFbV7iySI-71" value="" style="strokeWidth=1;shadow=0;dashed=0;align=center;html=1;shape=mxgraph.mockup.forms.rrect;rSize=0;strokeColor=#999999;fillColor=#ffffff;" parent="KYz0ExE2ZF3JFbV7iySI-61" vertex="1">
                    <mxGeometry x="170" y="200" width="780" height="445" as="geometry"/>
                </mxCell>
                <mxCell id="KYz0ExE2ZF3JFbV7iySI-72" value="Sign In" style="strokeWidth=1;shadow=0;dashed=0;align=center;html=1;shape=mxgraph.mockup.forms.anchor;fontSize=12;fontColor=#666666;align=left;resizeWidth=1;spacingLeft=0;" parent="KYz0ExE2ZF3JFbV7iySI-71" vertex="1">
                    <mxGeometry width="360" height="20" relative="1" as="geometry">
                        <mxPoint x="10" y="10" as="offset"/>
                    </mxGeometry>
                </mxCell>
                <mxCell id="KYz0ExE2ZF3JFbV7iySI-73" value="" style="shape=line;strokeColor=#ddeeff;strokeWidth=2;html=1;resizeWidth=1;" parent="KYz0ExE2ZF3JFbV7iySI-71" vertex="1">
                    <mxGeometry width="648" height="10" relative="1" as="geometry">
                        <mxPoint x="10" y="30" as="offset"/>
                    </mxGeometry>
                </mxCell>
                <mxCell id="KYz0ExE2ZF3JFbV7iySI-74" value="User Name:" style="strokeWidth=1;shadow=0;dashed=0;align=center;html=1;shape=mxgraph.mockup.forms.anchor;fontSize=12;fontColor=#666666;align=left;resizeWidth=1;spacingLeft=0;" parent="KYz0ExE2ZF3JFbV7iySI-71" vertex="1">
                    <mxGeometry width="360" height="20" relative="1" as="geometry">
                        <mxPoint x="10" y="40" as="offset"/>
                    </mxGeometry>
                </mxCell>
                <mxCell id="KYz0ExE2ZF3JFbV7iySI-75" value="johndoe" style="strokeWidth=1;shadow=0;dashed=0;align=center;html=1;shape=mxgraph.mockup.forms.rrect;rSize=0;strokeColor=#999999;fontColor=#666666;align=left;spacingLeft=5;resizeWidth=1;" parent="KYz0ExE2ZF3JFbV7iySI-71" vertex="1">
                    <mxGeometry width="540" height="25" relative="1" as="geometry">
                        <mxPoint x="10" y="60" as="offset"/>
                    </mxGeometry>
                </mxCell>
                <mxCell id="KYz0ExE2ZF3JFbV7iySI-76" value="Password:" style="strokeWidth=1;shadow=0;dashed=0;align=center;html=1;shape=mxgraph.mockup.forms.anchor;fontSize=12;fontColor=#666666;align=left;resizeWidth=1;spacingLeft=0;" parent="KYz0ExE2ZF3JFbV7iySI-71" vertex="1">
                    <mxGeometry width="360" height="20" relative="1" as="geometry">
                        <mxPoint x="10" y="95" as="offset"/>
                    </mxGeometry>
                </mxCell>
                <mxCell id="KYz0ExE2ZF3JFbV7iySI-77" value="********" style="strokeWidth=1;shadow=0;dashed=0;align=center;html=1;shape=mxgraph.mockup.forms.rrect;rSize=0;strokeColor=#999999;fontColor=#666666;align=left;spacingLeft=5;resizeWidth=1;" parent="KYz0ExE2ZF3JFbV7iySI-71" vertex="1">
                    <mxGeometry width="540" height="25" relative="1" as="geometry">
                        <mxPoint x="10" y="115" as="offset"/>
                    </mxGeometry>
                </mxCell>
                <mxCell id="KYz0ExE2ZF3JFbV7iySI-78" value="SIGN IN" style="strokeWidth=1;shadow=0;dashed=0;align=center;html=1;shape=mxgraph.mockup.forms.rrect;rSize=5;strokeColor=none;fontColor=#ffffff;fillColor=#66bbff;fontSize=16;fontStyle=1;" parent="KYz0ExE2ZF3JFbV7iySI-71" vertex="1">
                    <mxGeometry y="1" width="80" height="30" relative="1" as="geometry">
                        <mxPoint x="250" y="-50" as="offset"/>
                    </mxGeometry>
                </mxCell>
                <mxCell id="KYz0ExE2ZF3JFbV7iySI-79" value="" style="shape=line;strokeColor=#ddeeff;strokeWidth=2;html=1;resizeWidth=1;" parent="KYz0ExE2ZF3JFbV7iySI-71" vertex="1">
                    <mxGeometry y="1" width="648" height="10" relative="1" as="geometry">
                        <mxPoint x="10" y="-108" as="offset"/>
                    </mxGeometry>
                </mxCell>
                <mxCell id="KYz0ExE2ZF3JFbV7iySI-80" value="&lt;font style=&quot;font-size: 21px;&quot;&gt;Already have an account ?&lt;/font&gt;" style="strokeWidth=1;shadow=0;dashed=0;align=center;html=1;shape=mxgraph.mockup.forms.anchor;fontSize=12;fontColor=#666666;align=left;spacingLeft=0;resizeWidth=1;" parent="KYz0ExE2ZF3JFbV7iySI-71" vertex="1">
                    <mxGeometry y="1" width="260" height="20" relative="1" as="geometry">
                        <mxPoint x="230" y="-84" as="offset"/>
                    </mxGeometry>
                </mxCell>
                <mxCell id="KYz0ExE2ZF3JFbV7iySI-81" value="SIGN UP" style="strokeWidth=1;shadow=0;dashed=0;align=center;html=1;shape=mxgraph.mockup.forms.rrect;rSize=5;strokeColor=none;fontColor=#ffffff;fillColor=#66bbff;fontSize=16;fontStyle=1;" parent="KYz0ExE2ZF3JFbV7iySI-71" vertex="1">
                    <mxGeometry y="1" width="80" height="30" relative="1" as="geometry">
                        <mxPoint x="10" y="-150" as="offset"/>
                    </mxGeometry>
                </mxCell>
                <mxCell id="KYz0ExE2ZF3JFbV7iySI-82" value="Google SIGN IN" style="strokeWidth=1;shadow=0;dashed=0;align=center;html=1;shape=mxgraph.mockup.forms.rrect;rSize=5;strokeColor=none;fontColor=#ffffff;fillColor=#66bbff;fontSize=16;fontStyle=1;" parent="KYz0ExE2ZF3JFbV7iySI-71" vertex="1">
                    <mxGeometry x="340" y="395" width="130" height="30" as="geometry"/>
                </mxCell>
                <mxCell id="KYz0ExE2ZF3JFbV7iySI-97" value="" style="group" parent="KYz0ExE2ZF3JFbV7iySI-71" vertex="1" connectable="0">
                    <mxGeometry x="230" y="-13" width="550" height="395" as="geometry"/>
                </mxCell>
                <mxCell id="KYz0ExE2ZF3JFbV7iySI-94" value="Google" style="strokeWidth=1;shadow=0;dashed=0;align=center;html=1;shape=mxgraph.mockup.containers.window;align=left;verticalAlign=top;spacingLeft=8;strokeColor2=#008cff;strokeColor3=#c4c4c4;fontColor=#666666;mainText=;fontSize=17;labelBackgroundColor=none;whiteSpace=wrap;" parent="KYz0ExE2ZF3JFbV7iySI-97" vertex="1">
                    <mxGeometry width="220" height="380" as="geometry"/>
                </mxCell>
                <mxCell id="KYz0ExE2ZF3JFbV7iySI-95" value="" style="group" parent="KYz0ExE2ZF3JFbV7iySI-97" vertex="1" connectable="0">
                    <mxGeometry y="15" width="550" height="380" as="geometry"/>
                </mxCell>
                <mxCell id="KYz0ExE2ZF3JFbV7iySI-96" value="" style="group" parent="KYz0ExE2ZF3JFbV7iySI-95" vertex="1" connectable="0">
                    <mxGeometry x="16" y="60" width="360" height="180" as="geometry"/>
                </mxCell>
                <mxCell id="KYz0ExE2ZF3JFbV7iySI-85" value="Sign In" style="strokeWidth=1;shadow=0;dashed=0;align=center;html=1;shape=mxgraph.mockup.forms.anchor;fontSize=12;fontColor=#666666;align=left;resizeWidth=1;spacingLeft=0;" parent="KYz0ExE2ZF3JFbV7iySI-96" vertex="1">
                    <mxGeometry x="1" width="122" height="20" as="geometry"/>
                </mxCell>
                <mxCell id="KYz0ExE2ZF3JFbV7iySI-86" value="" style="shape=line;strokeColor=#ddeeff;strokeWidth=2;html=1;resizeWidth=1;" parent="KYz0ExE2ZF3JFbV7iySI-96" vertex="1">
                    <mxGeometry y="20" width="192" height="10" as="geometry"/>
                </mxCell>
                <mxCell id="KYz0ExE2ZF3JFbV7iySI-87" value="User Name:" style="strokeWidth=1;shadow=0;dashed=0;align=center;html=1;shape=mxgraph.mockup.forms.anchor;fontSize=12;fontColor=#666666;align=left;resizeWidth=1;spacingLeft=0;" parent="KYz0ExE2ZF3JFbV7iySI-96" vertex="1">
                    <mxGeometry y="30" width="360" height="20" as="geometry"/>
                </mxCell>
                <mxCell id="KYz0ExE2ZF3JFbV7iySI-88" value="johndoe" style="strokeWidth=1;shadow=0;dashed=0;align=center;html=1;shape=mxgraph.mockup.forms.rrect;rSize=0;strokeColor=#999999;fontColor=#666666;align=left;spacingLeft=5;resizeWidth=1;" parent="KYz0ExE2ZF3JFbV7iySI-96" vertex="1">
                    <mxGeometry y="50" width="192" height="25" as="geometry"/>
                </mxCell>
                <mxCell id="KYz0ExE2ZF3JFbV7iySI-89" value="Password:" style="strokeWidth=1;shadow=0;dashed=0;align=center;html=1;shape=mxgraph.mockup.forms.anchor;fontSize=12;fontColor=#666666;align=left;resizeWidth=1;spacingLeft=0;" parent="KYz0ExE2ZF3JFbV7iySI-96" vertex="1">
                    <mxGeometry y="85" width="360" height="20" as="geometry"/>
                </mxCell>
                <mxCell id="KYz0ExE2ZF3JFbV7iySI-90" value="********" style="strokeWidth=1;shadow=0;dashed=0;align=center;html=1;shape=mxgraph.mockup.forms.rrect;rSize=0;strokeColor=#999999;fontColor=#666666;align=left;spacingLeft=5;resizeWidth=1;" parent="KYz0ExE2ZF3JFbV7iySI-96" vertex="1">
                    <mxGeometry y="105" width="192" height="25" as="geometry"/>
                </mxCell>
                <mxCell id="KYz0ExE2ZF3JFbV7iySI-91" value="SIGN IN" style="strokeWidth=1;shadow=0;dashed=0;align=center;html=1;shape=mxgraph.mockup.forms.rrect;rSize=5;strokeColor=none;fontColor=#ffffff;fillColor=#66bbff;fontSize=16;fontStyle=1;" parent="KYz0ExE2ZF3JFbV7iySI-96" vertex="1">
                    <mxGeometry x="1" y="150" width="80" height="30" as="geometry"/>
                </mxCell>
                <mxCell id="KYz0ExE2ZF3JFbV7iySI-66" value="" style="strokeWidth=1;shadow=0;dashed=0;align=center;html=1;shape=mxgraph.mockup.rrect;rSize=10;strokeColor=#666666;" parent="KYz0ExE2ZF3JFbV7iySI-61" vertex="1">
                    <mxGeometry x="940" y="117" width="110" height="193" as="geometry"/>
                </mxCell>
                <mxCell id="KYz0ExE2ZF3JFbV7iySI-67" value="Button 2" style="strokeColor=inherit;fillColor=inherit;gradientColor=inherit;strokeWidth=1;shadow=0;dashed=0;align=center;html=1;shape=mxgraph.mockup.rrect;rSize=0;fontSize=17;fontColor=#666666;fontStyle=1;resizeWidth=1;whiteSpace=wrap;" parent="KYz0ExE2ZF3JFbV7iySI-66" vertex="1">
                    <mxGeometry width="110" height="50" relative="1" as="geometry">
                        <mxPoint y="50" as="offset"/>
                    </mxGeometry>
                </mxCell>
                <mxCell id="KYz0ExE2ZF3JFbV7iySI-68" value="Button 3" style="strokeColor=inherit;fillColor=inherit;gradientColor=inherit;strokeWidth=1;shadow=0;dashed=0;align=center;html=1;shape=mxgraph.mockup.rrect;rSize=0;fontSize=17;fontColor=#666666;fontStyle=1;resizeWidth=1;whiteSpace=wrap;" parent="KYz0ExE2ZF3JFbV7iySI-66" vertex="1">
                    <mxGeometry width="110" height="50" relative="1" as="geometry">
                        <mxPoint y="100" as="offset"/>
                    </mxGeometry>
                </mxCell>
                <mxCell id="KYz0ExE2ZF3JFbV7iySI-69" value="Button 4" style="strokeColor=inherit;fillColor=inherit;gradientColor=inherit;strokeWidth=1;shadow=0;dashed=0;align=center;html=1;shape=mxgraph.mockup.bottomButton;rSize=10;fontSize=17;fontColor=#666666;fontStyle=1;resizeWidth=1;whiteSpace=wrap;" parent="KYz0ExE2ZF3JFbV7iySI-66" vertex="1">
                    <mxGeometry y="1" width="110" height="50" relative="1" as="geometry">
                        <mxPoint y="-50" as="offset"/>
                    </mxGeometry>
                </mxCell>
                <mxCell id="KYz0ExE2ZF3JFbV7iySI-70" value="Button 1" style="strokeWidth=1;shadow=0;dashed=0;align=center;html=1;shape=mxgraph.mockup.topButton;rSize=10;fontSize=17;fontColor=#ffffff;fontStyle=1;fillColor=#008cff;strokeColor=#008cff;resizeWidth=1;whiteSpace=wrap;" parent="KYz0ExE2ZF3JFbV7iySI-66" vertex="1">
                    <mxGeometry width="110" height="50" relative="1" as="geometry"/>
                </mxCell>
                <mxCell id="KYz0ExE2ZF3JFbV7iySI-84" value="&lt;font style=&quot;font-size: 48px;&quot;&gt;Google Login&lt;/font&gt;" style="text;html=1;align=center;verticalAlign=middle;resizable=0;points=[];autosize=1;strokeColor=none;fillColor=none;" parent="1" vertex="1">
                    <mxGeometry x="2595" y="11" width="310" height="70" as="geometry"/>
                </mxCell>
                <mxCell id="2" value="Logo" style="strokeWidth=1;shadow=0;dashed=0;align=center;html=1;shape=mxgraph.mockup.text.callout;linkText=;textSize=17;textColor=#666666;callDir=NW;callStyle=line;fontSize=17;fontColor=#666666;align=left;verticalAlign=top;strokeColor=#666666;" vertex="1" parent="1">
                    <mxGeometry x="-1200" y="141" width="200" height="100" as="geometry"/>
                </mxCell>
            </root>
        </mxGraphModel>
    </diagram>
</mxfile>